<mxfile host="app.diagrams.net" modified="2023-03-29T00:34:31.825Z" agent="Mozilla/5.0 (Windows NT 10.0; Win64; x64) AppleWebKit/537.36 (KHTML, like Gecko) Chrome/111.0.0.0 Safari/537.36" etag="EbX1z_f_3UiDTBO9ozOZ" version="21.1.1" type="device">
  <diagram name="Page-1" id="74e2e168-ea6b-b213-b513-2b3c1d86103e">
    <mxGraphModel dx="1509" dy="778" grid="1" gridSize="10" guides="1" tooltips="1" connect="1" arrows="1" fold="1" page="1" pageScale="1" pageWidth="1100" pageHeight="850" background="none" math="0" shadow="0">
      <root>
        <mxCell id="0" />
        <mxCell id="1" parent="0" />
        <mxCell id="2_R9Nq9q-3S4Zrb_DTrf-8" value="" style="shape=image;imageAspect=0;aspect=fixed;verticalLabelPosition=bottom;verticalAlign=top;image=data:image/png,iVBORw0KGgoAAAANSUhEUgAAATUAAAAyCAYAAAA9bUwIAAAAAXNSR0IArs4c6QAAAARnQU1BAACxjwv8YQUAAAAJcEhZcwAADsQAAA7EAZUrDhsAAAwASURBVHhe7Z1/bBRbFcfP/mD7C2z50b4ULD5sHqmgBgiUJkoLeQZCok1Lo0YFrH9AinkxMamBkFAfeSQCIdGYpzQhgRL1IcKGBiHEBlJbRBGi8uC5FOpKgua9yhZoaV8f7bY7njNzZ+bO7Ox2fwJtzyc5zey9M7N37s79zjn33N26FAQYhmGmCTFFjYrv378Pd+7cgdu3b0N/fz9EIhFRmxi0f25uLtTU1EBdXR14PB5RE821a9fg/Pnz8PTpU3C73aKUYZiZBo1/0p9bt26Bz+eDkpISyMnJgdLSUli3bh2sXr0aFi5cKPZ2gETNztWrV5Vt27Yp8+fPJ8HLiO3du1eZGB8X72Dlt6dOKUVFRY7HsbGxzUxDJ0hxuVxR5UuXLlUOHDig9PX1CQWxYhG10dFRpaWlJSsCk5+frwQCASWC7xPBP6rh9uDgoFJZWel4DBsbG1ssW7t2reqA2TFEbXh4WGlsbHQ8OFO254RfOdX7RDn5wYeqvXe/X/nZlb8pJYtfd9yfjY2NLZ4tXrxY6ezsFCqmYUxe7d+/H9ra2sSrzFO06DPwaPZr8Jf/PoEbHw6o9ueHj+FfSgEULqkQezEMwyTOw4cPYceOHdDb2ytKRKLg4sWLsGXLFhgbGxPF0bg9HjSveJUYeGr1mMJFZVC940dQ/qU3YTyM74HlOh5fDvT/uwf++IufwEeBWzA++hwwjha1DMPMZCYiE5ATiYDH7YaPx8dFaTRbt26FEydOgNfrBdfIyIhSW1sLly9fFtVWlqytgfIvfwXmzH8N3F6PrEeTQ6LmnQULPvsGzCkuhQkUNBI6Ox6fD0aHh+BRbwDGRoZR1Dj7yTAzHfJtIuMTMPT4fxD802V48NcuURNNXl4eXLp0SV1p4erq6lI2b94MKG6iWoO8pcrvNEHVd9+C/MJ5qhgpSnJLOlRQwybCo2hhUeAMeXRe9NpcbpcaLDMMw5CDQ1o0MvgErp98F278ptXRMSKam5vh8OHD4Dp06JCye/duUWzyxrqN8LX976peFIWEDMMwLwtvTi5MjI3B73/8FvRe7RClVqqqqqCjowPctMDWiS989ZswKy+fBY1hmJcO6RDpEelSLILBIDx79gzctILfji9/NhSWfjq1cJNhGCYLkB6RLpE+OTE4OAjhcBjcExMTosiE5rbUWbqksgIMwzBZhPQIdUnVJwdIy9QVF+I1wzDMlEZfCsaixjDMtMLNC10ZhplOsKfGMMy0gkWNYZhpxeSiRhkHNjY2tpdtCeKqq6tT2tvbxUuN/KL58I2fvwcl5RXq9zVdbg8aO3UMw7x4lEgEbQI8s3zwKNgDv/vBt2Fk4LGoNaEvs9OXCWKI2jz41i/PQOnyVfSb3OCK8zPcDMMw2Uah9bToWH30z7/Dqe9/HUXtiagx0UXN0f2iL5HmzikEX8FscOGOzNQg0FwE73xRWLP1QcUgHY3QqvZPFfiP9ohCZipAOkR6RLo02a/4ONe6XJp3lmQsO60IHhQDgKwRAqJ4WmG5xmhrrW+E7o7pMvh7oPtoO4TEdqBD32amBEKLVF2aZBlabMmbqWLGGISC7dDVXDVNvL4KqN5VB8Vie9lGfVuA1xo4ip5cfRH4nX8EgnkVSECXePafmZyOg9AdFNtTmY1t0HR7APbdvg4Nu+SfkG8HP3qlfvLkpsN1znDcsX5wjZlp1EGDOuA1a0KvxoTCNZ6DYqYG/DWpDBJCj8Zfj+FaEvNSsY4J6B5DEAVFDYvi7JMFilHUloltZ/R2mW16B9vot11rdPKiB7oppDWOiX0dyfWnQ3vE/vr5nRIpWpl1ztTYzxZ2J94evEapHa2UlNCTFLi/X26jPbTH/Yy6+oM875cCHH5miAAO1NbmgziArDd4vHmpeMfcFQMxhDe5FhZF70MDLDthIQoEtUu80uag5HCNBi1lEG3hGgkwXVPMzKJ2XJcsAjGuI7n+1N7XKXykfusX2+mQyudrQAkZrNcEqgI+J/dlR7tFUOXPudg+78ckBItaBggdjfZQoqAntTTYEzpGBQVlVxs0nZNDQ31Q9EAXDuTMgOKiewi05EFqW/HGPVBdLl4gIfSIunTx0OepzrVBjdiH6h3FFj0d4zgL1utIuj/JgzIm9yugxuir69BgEeNolh2h/dosXqlWhnZEC8FT+XxlQrZMa/GuPdL74QPMaHsPbuvnsD9ImERhUUubduiWb+byPdCgDyppoBPmzW0/ps48Bq0JB5P+hC5GQWugrJ0uGPQkL68wn+D4OnshCg6sI9fV9pjIbcd2623FazA9EPScYogAnc8UHFFIGB5LKv0pUwELxJbW/jaLICdPuu3RMK773B7sL+orUYEY3hl6fUYoTv2ZVrtnLpwoSBeLqKCXcASfwvrNiDdmNb42BUiElVHHoKcg3cDF6P1UGze9COmEF0Vza2Yog2RR1Cj8qbZ7C5b3k707MXcUD7wu03MiD1TqG7zOfse+SaA/ZZGnNtXHmutKgVTaY8dy3Rq0pERHF0NZFDn0TB1OFGQU9BLsT1fLgBPYBkrUMQZi7goHp7Y/ngvPl52wRGQ/0fvQQyOaGG+1T1anIaLUdgtOfWMhwf4k78myRIO8HzHXldHJ9gTbYyPqugkM6Q0vT4ihOZ/GoWc6cPiZUYS3IeMkApaB4HCMjjwHhU97CtmaztEaqyw+xdH7aFBDJEHwYJyvFFmXgchmzvuZyJPgKpMKZIL9iRTvwvCO+gbFwNI3cdufLIm3Z3LkhAGeg4RNn1vj0DMtWNTSxSZQXWqGTLzEG7UbXxs3vX6zRh0jL2vAcJMm2vEGt4uAdh6qz3KqHz0fM/zF98X3MzJ0lrZjqCeHwoi67CFW8gLrjJAw4b5JoD918Fh1DhBFVZ6vixLTSbDsn057JkEOMekz1fuYQ8/0YFFLCOvckWFqGr8OqmWvhDwDfR1SvZQlRMw5JLz55UlyHBzm2iUMN2lpAhZbwhbKrun1L+BrPDTBLmfoSLxUbIJntkszbdmDqIuCREGs87L1jTmQU+hPIaSmuMbxfh1B4ZLEiLKd6vul/PkmiNyXhpBy6JkuLGoZQM1QygPdAZr8l/chj0LOnDmCA91pAWzSgyclbIMZxUsXU6vgJUGM67HPiSXfn5p3a4prlSQ2WoY2Pra1YzZS+XwTRU4YqNiWzzDJw9nPjEBhDy3FoMyYdXAUY0hSE7UsgqiA6nNauewlqF4D3djqANHmt8zMqBZepTJ4UoEGsyy8ZthLc2kO81dq29tsX7GSib4edX95Dk8lyf6ksNO2nxo20rlta9BiQXNy1G6jHfQ+xnWk8vkmiE3oo0SOSRrHH4ksmFcM3/vVH6Bk6ech/MmIKGWY5KGvHBnhMoqMvqCVEaAHbH4bgR4WKXrBM4BZefnw6P4HcGLbJvj4iTnZoBP3RyI1742XejBMVqFEg5xUiRWeMxIuoU+xcft8PrFpMjYyrP1vAl7DxjAZx0hEWBINFVK4yzhBekS6RPrkRF5eHng8HnCXlpaKIpPx0efwn/dvJPQrkwzDpA/NX3KCIA6oQ6RHpEukT04sWrQI8vPzwb18+XJRZOXGr49Cf/Ae5M35FLhJ3BiGyTyU5KBEg5xpZiyQ/pAOkR6RLsVi1apVMHfuXHDdvXtX2bBhA/T19YkqkyWVNfDmD9+GspVVMCsvF5SIqJjmPB8aFFsM8/KhfzYyU6H/sRL+BCPHf1yHKz99Gx7c6BI10Zw8eRK2b98OLgXZuXMnHDt2TFRZySucC69XVkPhwjJUTC//7wKGYV4MGHKGwQVzHvZC7r334WYoBKHnzqHnypUr4cqVK6qnRpkE5d69e0pZWRmpFRsbG9uUMq/Xq5w5c4akTEUVNeLs2bNKQUGB40FsbGxsr6rt27dPqJiGIWrE8ePHlaKiIscD2djY2F4l8/l8SktLizI+Pi4UTMMiakRnZ6eyfv16x5OwsbGxvQpWWVmp+P1+oVpW1EQB7mRhaGgILly4AKdPn4abN2/C8PAwhMNhEkCxB8MwzIshEokARpBQUFAAa9asgdraWti0aRMsWGD+cLuMo6jJhEIhePDgAQwMDKgnZxiGeZGMjo7CihUrVBEjYYsPwP8B7LH7r7DoD4MAAAAASUVORK5CYII=;" vertex="1" parent="1">
          <mxGeometry x="747" y="80" width="309" height="50" as="geometry" />
        </mxCell>
        <mxCell id="2_R9Nq9q-3S4Zrb_DTrf-9" value="" style="shape=image;imageAspect=0;aspect=fixed;verticalLabelPosition=bottom;verticalAlign=top;image=data:image/png,iVBORw0KGgoAAAANSUhEUgAAATUAAAAxCAYAAAC7+T6mAAAAAXNSR0IArs4c6QAAAARnQU1BAACxjwv8YQUAAAAJcEhZcwAADsQAAA7EAZUrDhsAAAtXSURBVHhe7Z1/aFTZFcfP/HCSmWgTzY8l2ti1YSUb20VFY6A1UbZEhDZEw7a0VZv+ocSyFAopimC6skKjBFrKtgkIGmm71mowWEUalGy0tqnS1o3bMZqmgi27qRM1Mdmsyfx4vee+++a9++ZNMhNnnHFyPnDkzb33vfu84X7nnHPve2NTGGABFt+7dw9u374N/f39MDIyAqFQSNTGBrbPzs6G6upqqKurA4fDIWoiuX79Opw/fx6ePHkCdrtdlBIEMd/A+Y/6c+vWLXC5XFBUVARZWVlQXFwMGzduhHXr1sHSpUtFawtQ1Mxcu3ZN2blzp5Kfn4+ClxA7cOCAEgwERA8yvzt1SsnLy7M8j4yMbH4ac4IUm80WUb5y5Url8OHDyvDwsFAQGUnUpqamlObm5qQIjMfjUbxerxJi/YTYP9zY8djYmFJRUWF5DhkZGVk027BhA3fAzIRFbWJiQmloaLA8OVG2/0SncmrwsXLyo4+5vX9vRPn5lb8pRctftWxPRkZGNpMtX75c6enpESqmEk5eHTp0CDo6OsSnxJO37AvwcOEr8Jf/PoYbH49y+/ODR/AvJQdyV5SJVgRBELHz4MED2L17NwwODooSAL5QcPHiRdi+fTtMT0+L4kjsDgczp/gUG+zS/JzcZSVQtfvHUPqVNyHgZ32wcg2HKwtG/j0AH/zyp/CJ9xYEpp4Bi6NFLUEQ85lgKAhZoRA47Hb4NBAQpZHs2LEDTpw4AU6nE2yTk5NKbW0tXL58WVTLrNhQDaVf/Rosyn8F7E6HUY9mB0XNuQAKvvgaLCoshiATNBQ6Mw6XC6YmxuHhoBemJyeYqNHqJ0HMd9C3CQWCMP7ofzD0p8tw/6+9oiYSt9sNly5d4jstbL29vcrWrVuBiZuoVkFvqeK7jVD5vbfBk7uEi5GixLelg8M0LOifYuYXBdagR+dkXpvNbuPBMkEQBDo4qEWTY4+h7+R7cOO37ZaOEdLU1ARHjx4F25EjR5R9+/aJYp3XNtbANw69x70oDAkJgiBShTMrG4LT0/CHn7wNg9e6RalMZWUldHd3gx032Frx5a9/Cxa4PSRoBEGkHNQh1CPUpWgMDQ3B06dPwY47+M24PAsht/jzcws3CYIgkgDqEeoS6pMVY2Nj4Pf7wR4MBkWRDua2eJYurlUBgiCIJIJ6xHSJ65MFqGV8x4X4TBAE8VKjbQUjUSMIIqOw00ZXgiAyCfLUCILIKEjUCILIKGYXNVxxICMjI0u1xYitrq5O6erqEh9VPHn58M1fvA9FpWX8eU2b3cGMnDqCIF48SijELAiOBS54ODQAv//hd2By9JGo1cGH2fFhgiiitgS+/aszULxqLb6TG2wzvIabIAgi2Si4n5Y5Vp/88+9w6gdvMVF7LGp0NFGzdL/wIdLsRbngylkINtaQyGC6G6D9jTx4941K6GwbEIUEkV6gDqEeoS7N9hYf61qbTfXO4oxlCR1fdwt0bqtkYoGCoVkltG9rgKtDolHKGYCrbV3gE8febu04/fA2GceRWZMcXRAZjtAirkuzbEOLLnkkZnOECcW2PGhvagEvi/9lBsA31MXEw1SOZW3MY2LndVq/gCBJlEHV3jooFMflNdpxutEFd8zjwgTYKw6JeUQMukTZ/wTjbaqE3rg8sS7m0TWw0I95Sanw4Go6oLF/FA7290H93jR9rbqlgHUxL5PCZSISe7QXrhFzweRRlO6H+nMoGMLOoXCkqzeUvmBYrIHepIYvjcNlInXQY1JJpJBNwPJS8QEpZSHe3o6wR6TmiRokLyScO9JyRiyEVUNTOT+HuTmvpWfH2jNvUU3+MxM5PF+b4XxDPkrKVRnKI9ur1w2XRc0Nxtf/7Bi/KOrgdTZ24S8FFrbfibgHNfzX+mpHb05bDNnWYhBBbVz1tu+yMe6MSA3EO/5EqqHwM6GwCWcQMZzI7WwCP4834WMTUg1N5cmGuTlciJCFBSe0OjHDfbJ2vRHt4geFSprwltdNfP++thZd9PmXhPGLggmOWYTMDLVY/A3EfZpDfhQwFGRDWBvf+BPpAIlaQlET70ZwUqCXoC4ciEJBeSuGpR1QLj4jahmzVu06qnfXaAhjG8O5rwHoZRNOw8c8Cut8XgyTfyZwYlsuYMjXTXz/A8xL089TQ88yeL1Gz/3NFoJa1Uv3qeUUz3VAtRBLrNfFKvbxJ9IDErVEg5OECZI5b6Zu8UBxm3kSmink4Sq7njbh0GNgYawegmlekSlxbsjnNbbuf+48Xnlrnzqpz8nX0j2YJPTPvCH9i4CFnjXqEYb1+v/fKgSVke/deJ91UK/9rZgHqIulLsKxjz+RLtBCQRIo5N/+1osC3HOLK6ckQqJwLscU0mqTSppcZVDNhEQL0wpr9kOVEIQ5wQSqSpvw/Fg9lEhC/5KXhaGnOEQBijkEZX+LeoNnJ98nCyHFuPKxNYpymBjHn0gbaKEgaYiwhXsqJnFjkzW2PVbmHBXm7HA/mWGSWlIGBeFJr4LnzRmjZ8KY/VqJ6F8OPTEE1sQHNzEbw9yZQtCIfuMSobmOP5FKKPxMKNZ7p7jnFs6RIQMwMkvIxGEhqzH3g3vJGmPaFhJ5fXOiO7kkoH8p9JyFoRa4OqdNyyz8xLDUwnjebM7jT6QSErUEw7cu8OV+4ySOPVFunPxmIVC9BXatNuPWBIHkTakJbK0NX8Gb06SPgwT3b/l/nAHjXrYZke6ThZ+mHCfPfYrkf1zjT6QNJGrJQCz3G8MlaTsEJqXD4RmGNOKQEd7PxSabFDphLi58LVEmoSfSOeH26uJE8klk//Im5sK9ItFvsnqpvxhDenNO0HCf6r3qq9TxjT+RLpCovXDUJLruLchbFCSMyXED5XutVxOjlaPgVIe3ISSPhPUvCVT0HJbx6QKzEM5Eeau8jSYqcY4/kR7Q6mdCqYMq3O/EJqHR+0J4gpkvHPRBlbmOeSKNxjwN8+Sq2We8Xv05fRWRT/DWPtlDMcK8kEbWf7nBw8CVx3pWVhBvTmsuJKh/KZSUvFoTJtGJOQTFccXVafw7iRIV9hnzn3zskTjHn0gLLF8SmbOkEL7/6z9C0covgf+zSVFKvLyoq3ha0lsV0eR7bjqp7p/IBBa4PfDw3kdwYucW+PRxZFZzxpdEqt4bbfXIGKSVxBRsSUh1/0QGYRP6FB27y+UShzrTkxPqbxPQHraXC0xm42peWEDU1bx244PcuBE2Wjj3vKS6fyKjQT1CXUJ9ssLtdoPD4QB7cXGxKNIJTD2D/3x4I6a3TBLpBX9iwfiWiiaDoGDOS9ovl3hS3T+RoTAdQj1CXUJ9smLZsmXg8XjAvmrVKlEkc+M3bTAydBfciz4HdhQ3Iv3hjw+Zk98AhbjwgM8/8mcfk0iq+ycyEtQf1CHUI9SlaKxduxYWL14Mtjt37iibN2+G4eFhUaWzoqIa3vzRO1CyphIWuLNBCYkKQuLZ+Jg4IuY7+MMgROLA31jxf8Yix3/0wZWfvQP3b/SKmkhOnjwJu3btApvC2LNnDxw7dkxUybhzF8OrFVWQu7SEKaaTfruAIIgXAws5/WCDRQ8GIfvuh3DT5wPfM+vQc82aNXDlyhXuqeFKgnL37l2lpKQE1YqMjIzspTKn06mcOXMGpYzDRQ05e/askpOTY3kSGRkZWbrawYMHhYqphEUNOX78uJKXl2d5IhkZGVk6mcvlUpqbm5VAICAUTEUSNaSnp0fZtGmT5UXIyMjI0sEqKiqUzs5OoVoyfKGANZIYHx+HCxcuwOnTp+HmzZswMTEBfr8fBVC0IAiCeDGEQiFgESTk5OTA+vXroba2FrZs2QIFBQWihYylqBnx+Xxw//59GB0d5RcnCIJ4kUxNTcHq1au5iKGwzQzA/wEVy5iMo4BtqwAAAABJRU5ErkJggg==;" vertex="1" parent="1">
          <mxGeometry x="394" y="81" width="309" height="49" as="geometry" />
        </mxCell>
        <mxCell id="2_R9Nq9q-3S4Zrb_DTrf-10" value="" style="shape=image;imageAspect=0;aspect=fixed;verticalLabelPosition=bottom;verticalAlign=top;image=data:image/png,iVBORw0KGgoAAAANSUhEUgAAATUAAAAxCAYAAAC7+T6mAAAAAXNSR0IArs4c6QAAAARnQU1BAACxjwv8YQUAAAAJcEhZcwAADsQAAA7EAZUrDhsAAAwaSURBVHhe7Z1/bBVZFcfP+8HrL0gLtN0ULC5WSLf+CBgoTZQWsgZCouVBo0YExD8grdmYmNRASKhLlsRCmmjMagkkUDCCCA0FIcQGUguiFaKysJZCt5Kg2a19BVooXfrrjefM3PfevfNm3q/tj7ft+SQHZu7cmblv5t3vnHPunVeHhoAFVPzw4UO4d+8e3L17F3p7e8Hv94utsUH1U1NToaysDLxeL7hcLrElnJs3b8LFixfh2bNn4HQ6RSnDMDMN6v+kP3fu3AGPxwO5ubmQkpICeXl5sHr1alixYgUsWLBA1LaARM3MjRs3tG3btmnz588nwRsX27t3rzY2OirOoPK706e1rKwsy/3Y2NhmpqETpDkcjrDypUuXagcOHNC6u7uFgqgoojY0NKTV1NRMiMCkp6dr7e3tmh/P48d/dMPl/v5+rbi42HIfNjY2NjtbtWqV7oCZCYrawMCAtmPHDsudx8v2HG/UTnc+1U68/6Fupx72ar+49nctd9HrlvXZ2NjYItmiRYu0lpYWoWIGweTV/v37oaGhQayNP1kLPws9s1+Dv/73Kdz6sE+3vzx+Ah9oGZC5uFDUYhiGiZ3Hjx/Dzp07obOzU5QA6AMFly9fhs2bN8Pw8LAoDsfpcqG5xVps4KH1fTIX5kPpzp9AwVffhNERPAeWB3B5UqD33x3wp1/9DD5qvwOjQ68A42ixlWGYmcyYfwxS/H5wOZ3wcnRUlIazdetWOH78OLjdbnAMDg5q5eXlcPXqVbFZZfGqMij42tdhzvzXwOl2yXoUHRI19yzI/twSmJOTB2MoaCR0ZlweDwwNvICeznYYHhxAUePRT4aZ6ZBv4x8dgxdP/gddf74Kj/7WKraEk5aWBleuXNFnWjhaW1u1DRs2AIqb2GxA3lLx9yqh5PtvQXrmPF2MNC2+KR06qGFjI0NoI6LAGvLo3Oi1OZwOPVhmGIYhB4e0aLD/KbSdeBdu/fawpWNEVFdXw6FDh8Bx8OBBbffu3aI4xJLV6+Cb+9/VvSgKCRmGYaYKd0oqjA0Pwx9++hZ03mgWpSolJSXQ3NwMTppga8WXvvEdmJWWzoLGMMyUQzpEekS6ZEdXVxc8f/4cnDSD34wnfTZk5n0msXCTYRhmAiA9Il0ifbKiv78fRkZGwDk2NiaKQlBuS8/SxTUqwDAMM4GQHqEu6fpkAWmZPuNCrDMMw3yqCUwFY1FjGGZa4eSJrgzDTCfYU2MYZlrBosYwzLQiuqjRiAMbGxvbVFuMOLxer9bU1CRWDdKz5sO3f3kKcgsK9fc1HU4XGjt1DMNMPprfjzYGrlke6OnqgN//aAsM9j0RW0PQy+z0MoGNqM2D7/76LOR94Sv0m9zgiPAz3Exy4qsvgcP1HcbKugbYV+c1lu1o3gGHq5vAB4VQVNUAFVX8c1BM8qDRfFp0rD761z/g9A+/haL2VGwJERA1S/eLXiJNnZMJnozZ4MCKjEF7dRa882Vhm2pRAMw0QWNgOxmKhBnlGBbbp4YOuF5PgmYstzcHlpMP5fol1TVkJhLSIdIj0qVov+JjvdXhMLyzOGPZ6U4OhuNBuprgfpdYDoBi0C4WdczrKBi90j7K8aaUQiit8kKOWC5aF1hONvCam99lDrvGzLREaJGuS1GmodlLHotZGDlKZ+8An0nUyMNRUUVM3YfEI4lCPAxRK+/2wb67bckbeloKWBN6mSLMZqY/MegSZ//jocALRQViGfF1yZ3JLGAEhXJSHawfCusKIVs6FhMd+aFB3mQAH5Yna7jMTD5Oux9cY6xQhUgRNQxH24WoyWGlWkcSNeyURWIxgK+5Fho3lSg5o8ObdsB1WRh1OuD6JqkOeSqU6Kd1y1yfBNZTji+8HLtcHw04qOUo1NVSGbUvTMwJo57eJqle+PFiRQ49vfAGepNBr9kqFRDzNcJ21mO5VPcdvAeN5muO986oF35/AvedSQ74Nak4kT0EJRySBCsnmJ9CpHI7T4PQBaC6FjuI2pl82GFbSUQiCUBXrRi5jEYTNMrHoZAzzlCT2ql0eGofdnRV2EhQjHrBNlnWix1fPV4bsaw/EBSv2eQRW2F5jUQ7aZBEbhcJGN0PKaz1oSAa9cLvDz2IEv1czPjD4We8oBcm59UCIWdIsNCL0DudWA16EXJ4iseQPT70XsI8AzPkZdjkjmINv9qr0asQy9TOimjTPMxQx7b80VFVVHzo0bRadvIYxMeSDvTSQvsZD4RCvM6SRxzlGlhtV9oZyCmeb4AycW9oe0isjKkulecp72hY6IHQAa0oeExywKIWLyYPwXjCS6GRLnpymBqoE/gfwWO8EdxuSnQX7IGKQMeROhgRqeMW1bWJffZIoiuhCFIhlOGxzeFvLNidJ+TB2H+eyjqbtkUDHwyhEI8eGsaSMnATfHjYo7Zdbqch8Pqx6N4ExTIkwjn63D2sExA8+rzyAw7XY3mwMBMPi1rcWOTVpC90oKPJ4aXuxclfetvOgGKDHT8omtjBSmUhsOu46GVURBxJVcNO6qCl0meIGRSo0sB59GVjUSHC58lZZ7NPFBQxJy9YLJofMBG9QPM1Utqpzi+09ohFSBrMpVG6QGqXcjxmKuGBggQwj7yRaAW+0MFBArnz0Rde+tKb82khLEZElXDXmqjz3aiNYpHOkfBUElNbos+zC/888c/NU0NPdaCjRAlzI3myYeeNS4TMOUK8Dni8pJqSwwThgYJEkDs3do77aAah0Mj44otF3H4dO5yBVB6GxbSQuDqfDeghhcLYDmitjjJCOm6Efx5zoj0qSugZha5avM5iOS4w/KSw1ML0vFlzrZJ7o7l8ledpPp8U/jJJA4efiWCZV0Nk7wzFS87NWOfTEFkgheAEOzF26OuyAJn3jZlCUxhrjAROCObPE3z9ijwpu4EGe9rr4xNgeYQ5Iko7jfBcPo8+vUYk/81CbNTDcDTOtjGTA4taQlgNBISHOKF1WdTkzkR4oVSeVoGC0xiYM7VJHUUsqkow0U5Qwl4+TwICExuyt4rgeYJ5qLiFVBqAQXKqRKLfZBXK+eRQOwLmnKDUTqOtoYeLcl+D9SgcFWVMUsGiliDheTGLHIviuRlY5dP0kbUoCfQcPdEtVhKEziOPpqpTPMYPe/H1Qlk88+JizAWq11QVwkgU1cU4AmxxH4lP9JBhJgwWtUQJ87gskvxYpubPTF5MEOywdcaUh6Iwbw+FoK4Nt9kNLsSDKQylsCvaGwiJgF5QJU0ZkT4LjXxWYFl2HDk1JZSMFHqbRCfmEFTPpbXpo6Lme0kPkcqqwDXHeuelUWn9ftF+YpVJKhwbN27ULly4IFYNMublwA9+80fIXfpFGPl4UJQyzCfFGEUMhNQUTsb7RgMzc6G/0N7z8H04vm09vHwa/igO/p4aj34yk4YykslTIpiJwTL8NOausdgxCULJdBpNlAY5aDTxsBzq0kRcu3CSYWxxCH2yx+nxeMRiiOHBAeNvE7AXxyQITd+Qf/mCRhODgkY5t3HJETIzCdIj0iXSJyvS0tLA5XKBMy8vTxSFGB16Bf9571ZMvzLJMGHo8/jMyffQoIft+6kMYwfqEOkR6RLpkxULFy6E9PR0cBw5ckTbtWuXKA6Ru6QIttQ3Qu7nC2Ho5QD46Q8fMAzDTDJOFLOUjNnQ80EHnKqqgJ5O64lIW7ZsgZMnT4Lj/v372tq1a6G7u1tsCrG4uAze/PHbkL+8BGalpYLmFxsYhmEmAfobKyMfY+T4zza49vO34dGtVrElnBMnTsD27dvBoSHkqR09elRsUknLnAuvF5dC5oJ8VEw3/+0ChmEmBww5R8ABcx53QuqD9+C2zwe+V9ah5/Lly+HatWswd+5cfaRTe/DggZafn09qxcbGxvapMrfbrZ09e5akTEcXNeLcuXNaRkaG5U5sbGxsyWr79u0TKmYQFDXi2LFjWlZWluWObGxsbMlkHo9Hq6mp0UZHR4WCGSiiRrS0tGhr1qyxPAgbGxtbMlhxcbHW2NgoVEtFHyjASgovXryAS5cuwZkzZ+D27dswMDAAIyMjJICiBsMwzOTg9/sBI0jIyMiAlStXQnl5Oaxfvx6ys7NFDRVLUZPx+Xzw6NEj6Ovr0w/OMAwzmQwNDcGyZct0ESNhiwzA/wEOFInBfSqtPQAAAABJRU5ErkJggg==;" vertex="1" parent="1">
          <mxGeometry x="40" y="80" width="309" height="49" as="geometry" />
        </mxCell>
        <mxCell id="2_R9Nq9q-3S4Zrb_DTrf-11" value="" style="shape=image;imageAspect=0;aspect=fixed;verticalLabelPosition=bottom;verticalAlign=top;image=data:image/png,iVBORw0KGgoAAAANSUhEUgAAATYAAAAxCAYAAABQzoWlAAAAAXNSR0IArs4c6QAAAARnQU1BAACxjwv8YQUAAAAJcEhZcwAADsQAAA7EAZUrDhsAAAvrSURBVHhe7Z1/aFTZFcfPzMTJL23ij8kSbezasJJqu6hoDLQmyhZFaEOitNJWbfqHEstSKKQogunKCg0itJRtExA00nat1WCwijQoaWJtrdLW1W02mqaCLbupEzUx2Wh+zes599335r43byYzk5n8mvOBo2/e73vm3u875977Ji4NgTDQpocPH8L9+/fh3r170NvbC4FAQG6NDto/IyMDysrKoKKiAjwej9wSys2bN+HSpUvw/PlzcLvdci3DMKkGtX/Sn7t374LX64W8vDxIT0+H/Px82LRpE6xfvx6WLl0q93aAhM2JGzduaHv27NEWL15MwpcQO3z4sDY+NiavYOW3Z89qubm5jsexsbGlpmEgpLlcrpD1K1eu1I4dO6b19PRIBbESImzDw8NabW1tUkQmKytL6+jo0AJ4nQD+IwyX+/v7teLiYsdj2NjY2MLZxo0bRRBmxyJsg4ODWlVVleMJEmWHTjdpZ7ueaWc+/FjY+w97tZ9d/5uWt/x1x/3Z2NjYItny5cu11tZWqWI6lo6so0ePQmNjo/yUeHKXfQ6ezH8N/vLfZ3D74z5hf378FP6lZUPOiiK5F8MwTPQ8fvwY9u3bB11dXXINgDl4cOXKFdixYweMjIyIDU64PR60NPkpOuj0dEzOsgIo3fcjKPzyWzA2itfQLyvweNOh99+d8Mdf/AQ+6bgLY8OvAPNquZVhmFRmPDAO6YEAeNxu+HRsTK4NZffu3XD69GlIS0vThe3ly5dQXl4O165dk7tYWbGxDAq/8lVYsPg1cKd5VE2aGBK2tHmw5PNvwAJfPoyjqEktteDxemF4cACedHXAyNAgChuPijJMqkPxTWBsHAae/g+6/3QNHv21TW4JJTMzE65evSpmYAhha29vh+3bt8PQ0JDcRYeipuLvVEPJd9+GrJxFQpA0LbbpHgLUsfHRYbRRucIZiuzSMHpzuV0ieWYYhqEgh7RoqP8Z3DrzHtz+TYNjcETU1NTA8ePHdWGjhYMHD8pNQd7YtBW+fvQ9EU1ResgwDDNdpKVnwPjICPz+x29D140WudZKSUkJtLS0gMj3aBKuE1/62i6Yl5nFosYwzLRDOkR6RLoUju7ubnjx4gW4RzE9pJn+drxZ8yEn/7PxpZ4MwzBJgPSIdIn0yYn+/n4gTXNTrjo+Pi5XB6G+LtFzFyaXZRiGmXJIj1CXhD45QFpGmiaEjWEYZi5gTBPjORUMw8w53KRwPBmWYZi5BEdsDMPMOVjYGIaZc0QnbDTAwMbGxjbdFiUu+v21Xbt2QXNzs1ylk5W7GL758/chr7BIvN/pcnvQOMBjGGbq0QIBtHHwzPPCk+5O+N0Pvg1DfU/l1iD0Ajy9cBBB2BbBt355HvJXr6Pf9wZXhJ/0ZhiGSTYazbfF4OqTf/4dzn7/Gyhsz+SWIIawhQ3B6MXTjAU54M2eDy7cmWFSnpYqaHgzF959swSa6jvlSmaqIB0iPSJdmujXf8JvpWkgFKXFmNvOCrrrZAV1tobKKmhv4Yo7ISnlx05or28Gv1zuaDGWmSlDapHQpQmmqEWWvbkmaFHi726GtpoSeLfGmp7POrAcHfUYZVTmQpPzjyEklTnjR0ERlB6oAJ9cXrXVWJZMs69Tiih0iUcDItFSB+3dcnnW0QxNGDE1UZQx3WWY1X5U2NoI1ff64Mi9W7DzgPpT9jPI14xAvCua2u+LVsBOUVl1q8anchBKOTgljQ72IzNz4FeqbPiwQa6Sy85gI5Uph9mfVFmC6Ye14XbUKNtFKobHUVom1zUo6ZmfzmfsS/1SYZ76fox8mvBa5nnpPA79WPq1q6BDfibM+7GkhdGVJR6S6cd2xY/kr45J+kvH4X7k/sb5Q+8lFl/Hcj9YRuU+Gmigwhi4wP2b1Hu0XYP2M7dV1smVqQenohZIfOqUSkp9KWrKQRWORsRsKUe3LlqiAjoij1MqsJ8qKu7vr6fjlI5o6pfCfe3iJs5P94bXUom/HyveskRDcv3YpgoBlp/EYnL+0q/rlEr68fheuTwZJvX90SANbtfrSBF8QfVlS7NFVOl+DXxb1ag5tWBho/4R4wlHw/hKo/FtPQSlhfIDQpFVm1Hxjf6Wi41QJveh7Y7RFj6pzeMUdFGzVnQdbGiqCOJ+E0ZRUiiJVScoHWy0REz6OrQTemWPuyxhmT4/kr/aUJQMYvUXnTfY4V8EZRelr6gvzSLIoUTn6xjvx4bfNgLrO3BIuV4zfGTeeycuG+ewP0xSCxY2R7BSnLgF1bJi6jRDu1nxKmAnbhOjYoUVyhPUKkhBgo2l2tLpjGCjNxq22jiCT171ukjhIdhpNDxFDAh7AwjPZMoSC4n2I4nGLb3sQnTkSsKMXCbrryJYIpf0+2+0iHLsJOb7M8t98RD6i3wlNyBmXcHoz0zLyZ+Tuu/ZDQ8eOEAhfKn9aYeVJ1jp1OhE9oFEQolY6NzBaQIoePj0DTZssdKK5bq4/wl8WhsVFo8pxc/m+bBifxRNlDWZssRA4v3YqERQKDqG7wSYMlLZ4/FXYZFyHrynynB9X3GQiO/PUm4dmm5iYAiiKozWepZ68OCBMZqnREzUydtQWadUSMRSQZODDxtYZDCasD+FLY0ySpJSluT7McQ/E5Y9Sn9RFGWLpM2+L/v9T4r4vj/HeoEPSzPak4IYjPJTOw0lOBU1wKfnThHmS7rrIPxrM7IRO1hIqplQZFSiMmmRSnBZkuhHtWNcMGHZo/eX7wCmehf1PjWL0ES8/1hJ5PenDiLgOUjcjL42/A5SOQ0lWNhU8MldqvZd1Csje5YnK6Yr5iiVjhjKVzqwE4blup0YRdDImvyIlbkdP5v3EaFCW0Qh2WVJlh9xm5kehiv7ZPyFx4o+QRRWtf8uRFAnILyv4//+nFDTzQ7Fx6mehhIsbDaos1gdcaKGJ7A1VnNekdE/pFbYhFIBpWr0QhGEMY+pUhldRKx9TtiglEZCI3PiGCrPFJQlOX4kYZDlsJU92Jjj8JcU06DAOkRWEYng67i/vyhQfWmKKaehBAtbCLaKiA3PmApgbaxTh+8AdR7LD2HwiQ5m+UFgm+9kI/llSYIfUbwcj8MGrvaRxe6vTn1yLomNsBJFcDBdtozqOhHZ1/F9f9GhDiIIbFNrUhUeFXWAKqI6DE9hvv40pz4hh34YemJjxbS+RpRIKEXqg2oxomZtQD5MX8pCplToUL8R3ZN5r7SveY/JL0vi/YjHXVRGFY391T49QYz+ohTUtp9IIenctjlq4Yjs6/i+v6iwiX2I0KUoYX9oMnuRD773qz9A3sovwujLIbmWYaYWej3JnDyLQmNMemUkGAkH31qgB8b0ZBVTxbzMLHjy8EM4vWcbfPos2HlgMOEPTepRHL9DyjAzFhp8UAdawqXqcw7XhFmm2+PxgNfrlR+DjAwN6n/rgF+QZ5gZhTk4YRl8oMnecz+aJT0iXSJ9ciIzMxNI04Sw5efny9VBxoZfwX8+uB3Vr1UyDDO9UH/mnB80oJcJUI9Il0ifnFi2bBlkZWXpqejq1avFSju3f10Pvd0PIHPBZ0gB5VqGYWYMNPBBgw/qCPQchPSHdIj0iHQpHOvWrYOFCxeCC3NVrbOzE7Zs2QI9PT1yc5AVxWXw1g/fgYK1JTAvMwO0gNwwi3k10C+XGGZuQ3/4ZLZDf7dl9CVmkP+4Bdd/+g48ut0mt4Ry5swZ2Lt3ry5stGL//v1w8uRJsdFOZs5CeL24FHKWFqBypqXs30JgGGaKwfRzFFyw4HEXZDz4AO74/eB/5ZyGrl27Fq5fvy4iNhpdEDx48EArKCggxWJjY2ObVZaWlqadP39eqhlGXvJ/wYULF7Ts7GzHA9nY2Nhmqh05ckSqmI5F2IhTp05pubm5jgezsbGxzSTzer1abW2tNjY2JhVMJ0TYiNbWVm3z5s2OJ2JjY2ObCVZcXKw1NTVJ1bJiDh7YGRgYgMuXL8O5c+fgzp07MDg4CKOjoySEcg+GYZipIRAIAGaSkJ2dDRs2bIDy8nLYtm0bLFkS/CF3lbDCpuL3++HRo0fQ19cnLsAwDDOVDA8Pw5o1a4SQkbhFBuD/ggTxEtZBYTQAAAAASUVORK5CYII=;" vertex="1" parent="1">
          <mxGeometry x="1100" y="80" width="310" height="49" as="geometry" />
        </mxCell>
        <mxCell id="2_R9Nq9q-3S4Zrb_DTrf-12" value="" style="endArrow=none;html=1;rounded=0;strokeWidth=6;" edge="1" parent="1">
          <mxGeometry width="50" height="50" relative="1" as="geometry">
            <mxPoint x="190" y="710" as="sourcePoint" />
            <mxPoint x="190" y="140" as="targetPoint" />
          </mxGeometry>
        </mxCell>
        <mxCell id="2_R9Nq9q-3S4Zrb_DTrf-14" value="" style="endArrow=none;html=1;rounded=0;strokeWidth=6;" edge="1" parent="1">
          <mxGeometry width="50" height="50" relative="1" as="geometry">
            <mxPoint x="547.97" y="710" as="sourcePoint" />
            <mxPoint x="547.97" y="140" as="targetPoint" />
          </mxGeometry>
        </mxCell>
        <mxCell id="2_R9Nq9q-3S4Zrb_DTrf-15" value="" style="endArrow=none;html=1;rounded=0;strokeWidth=6;" edge="1" parent="1">
          <mxGeometry width="50" height="50" relative="1" as="geometry">
            <mxPoint x="900.97" y="710" as="sourcePoint" />
            <mxPoint x="900.97" y="140" as="targetPoint" />
          </mxGeometry>
        </mxCell>
        <mxCell id="2_R9Nq9q-3S4Zrb_DTrf-16" value="" style="endArrow=none;html=1;rounded=0;strokeWidth=6;" edge="1" parent="1">
          <mxGeometry width="50" height="50" relative="1" as="geometry">
            <mxPoint x="1254.47" y="710" as="sourcePoint" />
            <mxPoint x="1254.47" y="140" as="targetPoint" />
          </mxGeometry>
        </mxCell>
        <mxCell id="2_R9Nq9q-3S4Zrb_DTrf-19" value="" style="shape=flexArrow;endArrow=classic;html=1;rounded=0;fillColor=#9AC7BF;" edge="1" parent="1">
          <mxGeometry width="50" height="50" relative="1" as="geometry">
            <mxPoint x="210" y="253" as="sourcePoint" />
            <mxPoint x="530" y="253" as="targetPoint" />
          </mxGeometry>
        </mxCell>
        <mxCell id="2_R9Nq9q-3S4Zrb_DTrf-20" value="" style="shape=flexArrow;endArrow=classic;html=1;rounded=0;fillColor=#9AC7BF;" edge="1" parent="1">
          <mxGeometry width="50" height="50" relative="1" as="geometry">
            <mxPoint x="560" y="253" as="sourcePoint" />
            <mxPoint x="880" y="253" as="targetPoint" />
          </mxGeometry>
        </mxCell>
        <mxCell id="2_R9Nq9q-3S4Zrb_DTrf-21" value="" style="shape=flexArrow;endArrow=classic;html=1;rounded=0;fillColor=#9AC7BF;" edge="1" parent="1">
          <mxGeometry width="50" height="50" relative="1" as="geometry">
            <mxPoint x="920" y="253" as="sourcePoint" />
            <mxPoint x="1240" y="253" as="targetPoint" />
          </mxGeometry>
        </mxCell>
        <mxCell id="2_R9Nq9q-3S4Zrb_DTrf-22" value="" style="shape=flexArrow;endArrow=classic;html=1;rounded=0;fillColor=#9AC7BF;" edge="1" parent="1">
          <mxGeometry width="50" height="50" relative="1" as="geometry">
            <mxPoint x="1240" y="416" as="sourcePoint" />
            <mxPoint x="920" y="416" as="targetPoint" />
          </mxGeometry>
        </mxCell>
        <mxCell id="2_R9Nq9q-3S4Zrb_DTrf-23" value="" style="shape=flexArrow;endArrow=classic;html=1;rounded=0;fillColor=#9AC7BF;" edge="1" parent="1">
          <mxGeometry width="50" height="50" relative="1" as="geometry">
            <mxPoint x="880" y="414.95" as="sourcePoint" />
            <mxPoint x="210" y="416" as="targetPoint" />
          </mxGeometry>
        </mxCell>
        <mxCell id="2_R9Nq9q-3S4Zrb_DTrf-24" value="" style="shape=flexArrow;endArrow=classic;html=1;rounded=0;fillColor=#9AC7BF;" edge="1" parent="1">
          <mxGeometry width="50" height="50" relative="1" as="geometry">
            <mxPoint x="1230" y="568" as="sourcePoint" />
            <mxPoint x="213.5" y="567.52" as="targetPoint" />
          </mxGeometry>
        </mxCell>
        <mxCell id="2_R9Nq9q-3S4Zrb_DTrf-25" value="&lt;font style=&quot;font-size: 22px;&quot; face=&quot;Tahoma&quot;&gt;Git Add&lt;/font&gt;" style="rounded=0;whiteSpace=wrap;html=1;gradientColor=none;shadow=1;glass=0;" vertex="1" parent="1">
          <mxGeometry x="220" y="163" width="300" height="60" as="geometry" />
        </mxCell>
        <mxCell id="2_R9Nq9q-3S4Zrb_DTrf-26" value="&lt;font style=&quot;font-size: 22px;&quot; face=&quot;Tahoma&quot;&gt;Git Commit&lt;/font&gt;" style="rounded=0;whiteSpace=wrap;html=1;gradientColor=none;shadow=1;glass=0;" vertex="1" parent="1">
          <mxGeometry x="570" y="163" width="300" height="60" as="geometry" />
        </mxCell>
        <mxCell id="2_R9Nq9q-3S4Zrb_DTrf-27" value="&lt;font style=&quot;font-size: 22px;&quot; face=&quot;Tahoma&quot;&gt;Git Push&lt;br&gt;&lt;/font&gt;" style="rounded=0;whiteSpace=wrap;html=1;gradientColor=none;shadow=1;glass=0;" vertex="1" parent="1">
          <mxGeometry x="930" y="163" width="300" height="60" as="geometry" />
        </mxCell>
        <mxCell id="2_R9Nq9q-3S4Zrb_DTrf-28" value="&lt;font style=&quot;font-size: 22px;&quot; face=&quot;Tahoma&quot;&gt;Git Fetch&lt;br&gt;&lt;/font&gt;" style="rounded=0;whiteSpace=wrap;html=1;shadow=1;" vertex="1" parent="1">
          <mxGeometry x="930" y="322" width="300" height="60" as="geometry" />
        </mxCell>
        <mxCell id="2_R9Nq9q-3S4Zrb_DTrf-29" value="&lt;font style=&quot;font-size: 22px;&quot; face=&quot;Tahoma&quot;&gt;Git Merge&lt;/font&gt;" style="rounded=0;whiteSpace=wrap;html=1;shadow=1;" vertex="1" parent="1">
          <mxGeometry x="220" y="322" width="660" height="60" as="geometry" />
        </mxCell>
        <mxCell id="2_R9Nq9q-3S4Zrb_DTrf-30" value="&lt;font style=&quot;font-size: 22px;&quot; face=&quot;Tahoma&quot;&gt;Git Pull&lt;/font&gt;" style="rounded=0;whiteSpace=wrap;html=1;" vertex="1" parent="1">
          <mxGeometry x="220" y="480" width="1010" height="60" as="geometry" />
        </mxCell>
      </root>
    </mxGraphModel>
  </diagram>
</mxfile>
